<svg id="Слой_1" data-name="Слой 1" xmlns="http://www.w3.org/2000/svg" viewBox="0 0 269.99 61.65"><defs><style>.cls-4{fill:#ff9802}</style></defs><path d="M61.75 22.9a9.39 9.39 0 011.47-.28 14.06 14.06 0 012.08-.14 10.4 10.4 0 011.85.14 3.12 3.12 0 011.38.56 2.7 2.7 0 01.86 1.14 4.87 4.87 0 01.31 1.9v10.06a3.47 3.47 0 00.94 2.72 4 4 0 002.71.81 7 7 0 001.75-.18 5.87 5.87 0 001.06-.38V22.9a9.39 9.39 0 011.47-.28 14.06 14.06 0 012.08-.14 10.4 10.4 0 011.85.14 3.12 3.12 0 011.38.56 2.8 2.8 0 01.87 1.14 5.08 5.08 0 01.3 1.9v14.22a3.83 3.83 0 01-2 3.51 12.78 12.78 0 01-3.9 1.57 21.37 21.37 0 01-4.94.54 18.41 18.41 0 01-4.65-.56A10.54 10.54 0 0165 43.76a7.63 7.63 0 01-2.38-3 10.77 10.77 0 01-.84-4.47zm37.66-1.03a18.19 18.19 0 015.22.72 11.32 11.32 0 014.14 2.23 10.33 10.33 0 012.71 3.76 13.68 13.68 0 011 5.41 15 15 0 01-.84 5.24 10.23 10.23 0 01-2.41 3.77 9.68 9.68 0 01-3.72 2.27 14.76 14.76 0 01-4.84.75 11.07 11.07 0 01-3.74-.61v7.77a13.73 13.73 0 01-1.5.3 13.22 13.22 0 01-2.1.17 11.33 11.33 0 01-1.85-.14 3.08 3.08 0 01-1.38-.57 2.44 2.44 0 01-.84-1.14 5.33 5.33 0 01-.28-1.9V27.44a3.58 3.58 0 01.53-2.06A5.53 5.53 0 0191 23.93a12 12 0 013.6-1.5 19.27 19.27 0 014.81-.56zm.09 17.87q4.81 0 4.82-5.75a7 7 0 00-1.19-4.45 4.22 4.22 0 00-3.44-1.45 5.57 5.57 0 00-1.59.21 6.73 6.73 0 00-1.22.49v10.3a7.34 7.34 0 001.22.46 4.84 4.84 0 001.4.19z" fill="#ff0013"/><path d="M127.43 21.87a16 16 0 014.85.68A12.64 12.64 0 01136 24.3a5.8 5.8 0 011.47 1.45 3.6 3.6 0 01.54 2.06v16.38a9.1 9.1 0 01-.94 4.28 8.55 8.55 0 01-2.54 3 10.94 10.94 0 01-3.79 1.76 18.89 18.89 0 01-4.66.56 16 16 0 01-6.69-1.15 4.12 4.12 0 01-2-5.61 3.69 3.69 0 011-1.24 15.28 15.28 0 003.03 1.21 12.3 12.3 0 003.53.51 8.24 8.24 0 004-.84 2.86 2.86 0 001.52-2.67v-.75a11.57 11.57 0 01-4.67.84 12.55 12.55 0 01-4-.63 8.9 8.9 0 01-3.33-2 9.6 9.6 0 01-2.29-3.43 13.13 13.13 0 01-.86-5 12.37 12.37 0 01.91-5 9.53 9.53 0 012.52-3.48 10.6 10.6 0 013.84-2.06 16.27 16.27 0 014.84-.62zm2.9 6.78a4.47 4.47 0 00-1-.37 5.48 5.48 0 00-1.57-.19 4.36 4.36 0 00-3.44 1.29 5.31 5.31 0 00-1.15 3.67 5.5 5.5 0 001.2 3.95 3.89 3.89 0 002.92 1.19 4.76 4.76 0 003-.89zm21.9-6.78a19.43 19.43 0 014.61.51 10.41 10.41 0 013.55 1.62 7 7 0 012.27 2.67 8.5 8.5 0 01.8 3.81v10.43a2.93 2.93 0 01-.68 2 6.76 6.76 0 01-1.61 1.33q-3 1.83-8.57 1.83a19.57 19.57 0 01-4.46-.47 10.62 10.62 0 01-3.42-1.4 6.54 6.54 0 01-2.2-2.39 7.13 7.13 0 01-.77-3.37 6.35 6.35 0 011.92-5 10.37 10.37 0 015.94-2.15l6.13-.66v-.32a2 2 0 00-1.19-1.95 8.08 8.08 0 00-3.44-.58 16.61 16.61 0 00-3.47.37 19.11 19.11 0 00-3 .94 3.36 3.36 0 01-1-1.29 4 4 0 01-.42-1.8 3 3 0 01.59-1.94 4.53 4.53 0 011.8-1.24 14.36 14.36 0 013.2-.75 29.16 29.16 0 013.42-.2zm.37 18.39a10.53 10.53 0 001.76-.17 4.57 4.57 0 001.43-.44V35.9l-3.37.29a5.13 5.13 0 00-2.15.56 1.5 1.5 0 00-.85 1.4 1.85 1.85 0 00.73 1.52 4 4 0 002.45.59zm26.63-18.39a13.35 13.35 0 013.76.54A9.32 9.32 0 01186.2 24a13.65 13.65 0 013.16-1.54 14.11 14.11 0 017.72-.14 9 9 0 013 1.47 7.19 7.19 0 012.13 2.67 9.27 9.27 0 01.79 4v14.8a9.39 9.39 0 01-1.47.28 14.2 14.2 0 01-2.09.14 10.28 10.28 0 01-1.84-.14 3.07 3.07 0 01-1.38-.56 2.61 2.61 0 01-.87-1.15 5 5 0 01-.3-1.89V30.76a2.45 2.45 0 00-.8-2 3.37 3.37 0 00-2.15-.63 3.72 3.72 0 00-1.4.3 4.22 4.22 0 00-1.13.64 1.48 1.48 0 010 .35v15.84a11.17 11.17 0 01-1.52.28 13.8 13.8 0 01-2 .14 10.28 10.28 0 01-1.84-.14 3.16 3.16 0 01-1.39-.56 2.67 2.67 0 01-.86-1.15 5 5 0 01-.3-1.89V30.76a2.35 2.35 0 00-.87-2 3.44 3.44 0 00-2.08-.63 3.72 3.72 0 00-1.45.26 9.21 9.21 0 00-1 .49v16.38a9.32 9.32 0 01-1.48.28 14.06 14.06 0 01-2.08.14 10.47 10.47 0 01-1.85-.14 3.17 3.17 0 01-1.38-.56 2.67 2.67 0 01-.86-1.15 5 5 0 01-.31-1.89V27.81a3.37 3.37 0 01.54-2 6.09 6.09 0 011.48-1.41 13.66 13.66 0 013.95-1.82 17.15 17.15 0 014.96-.71zm28.49-5.62a4.13 4.13 0 011.19-3 4.7 4.7 0 016.32 0 4.13 4.13 0 011.19 3 4.13 4.13 0 01-1.19 3 4.73 4.73 0 01-6.32 0 4.13 4.13 0 01-1.19-3zm8.33 29l-1.52.26a12.57 12.57 0 01-2 .16 10.47 10.47 0 01-1.85-.14 3.17 3.17 0 01-1.38-.56 2.67 2.67 0 01-.86-1.15 4.78 4.78 0 01-.31-1.89v-19c.35-.07.85-.15 1.52-.26a12.66 12.66 0 012-.16 10.47 10.47 0 011.85.14 3.17 3.17 0 011.38.56 2.7 2.7 0 01.86 1.14 4.87 4.87 0 01.31 1.9zm19.46-14.35a2.59 2.59 0 00-.82-2.13 3.36 3.36 0 00-2.22-.68 7.22 7.22 0 00-1.85.24 4.42 4.42 0 00-1.57.7v16.23a9.39 9.39 0 01-1.47.28 14.16 14.16 0 01-2.08.14 10.4 10.4 0 01-1.85-.14 3.07 3.07 0 01-1.38-.56 2.77 2.77 0 01-.87-1.15 5 5 0 01-.3-1.89v-14a3.63 3.63 0 01.54-2.06 6 6 0 011.47-1.45 13.62 13.62 0 014-1.82 19.06 19.06 0 015.36-.7c3.52 0 6.24.77 8.14 2.31a7.85 7.85 0 012.85 6.44v14.6a9.39 9.39 0 01-1.47.28 14.06 14.06 0 01-2.08.14 10.4 10.4 0 01-1.85-.14 3.07 3.07 0 01-1.38-.56 2.77 2.77 0 01-.87-1.15 5 5 0 01-.3-1.89zm23.96-9.03a16 16 0 014.84.68A12.64 12.64 0 01268 24.3a5.64 5.64 0 011.47 1.45 3.6 3.6 0 01.54 2.06v16.38a9.22 9.22 0 01-.93 4.28 8.68 8.68 0 01-2.55 3 10.94 10.94 0 01-3.79 1.76 18.83 18.83 0 01-4.66.56 16 16 0 01-6.69-1.15 3.85 3.85 0 01-2.43-3.72 3.94 3.94 0 01.44-1.89 3.69 3.69 0 011-1.24 15.28 15.28 0 003.05 1.21 12.32 12.32 0 003.54.51 8.23 8.23 0 004-.84 2.87 2.87 0 001.5-2.71v-.75a11.66 11.66 0 01-4.68.84 12.55 12.55 0 01-4-.63 8.86 8.86 0 01-3.32-2 9.49 9.49 0 01-2.3-3.43 13.33 13.33 0 01-.86-5 12.37 12.37 0 01.91-5 9.44 9.44 0 012.53-3.48 10.47 10.47 0 013.83-2.06 16.29 16.29 0 014.87-.58zm2.9 6.78a4.83 4.83 0 00-1-.37 5.43 5.43 0 00-1.57-.19 4.36 4.36 0 00-3.44 1.29 5.36 5.36 0 00-1.15 3.67A5.55 5.55 0 00256.4 37a3.9 3.9 0 002.93 1.19 4.8 4.8 0 003-.89z" fill="#fff"/><path d="M38.56 17.15a1.87 1.87 0 00-.14-1.9L26.82.46a1 1 0 00-1.72 0L13.51 15.25a1.87 1.87 0 000 2.13 1.1 1.1 0 00.84.36h23.24a1.08 1.08 0 00.83-.36 1.54 1.54 0 00.14-.23z" fill="#f50606"/><circle class="cls-4" cx="4.91" cy="35.88" r="4.91"/><circle class="cls-4" cx="46.88" cy="35.88" r="4.91"/><circle class="cls-4" cx="26.68" cy="56.74" r="4.91"/><rect class="cls-4" x="11.5" y="30.97" width="28.92" height="9.81" rx="4.41" transform="rotate(135 25.957 35.876)"/><rect class="cls-4" x="11.5" y="30.97" width="28.92" height="9.81" rx="4.41" transform="rotate(-135 25.956 35.877)"/></svg>